<?xml version="1.0" encoding="utf-8"?>
<!-- Generator: Adobe Illustrator 18.0.0, SVG Export Plug-In . SVG Version: 6.00 Build 0)  -->
<!DOCTYPE svg PUBLIC "-//W3C//DTD SVG 1.1//EN" "http://www.w3.org/Graphics/SVG/1.1/DTD/svg11.dtd">
<svg version="1.1" id="Layer_1" xmlns="http://www.w3.org/2000/svg" xmlns:xlink="http://www.w3.org/1999/xlink" x="0px" y="0px"
	 viewBox="0 0 311.3 102.5" enable-background="new 0 0 311.3 102.5" xml:space="preserve">
<g>
	<path fill="#FFFFFF" d="M81,81H66.9V59c0-5.3-0.1-12-7.3-12c-7.3,0-8.5,5.7-8.5,11.7V81H37.1V35.7h13.5v6.2h0.2
		c1.9-3.6,6.5-7.3,13.3-7.3c14.3,0,16.9,9.4,16.9,21.6V81L81,81z M21.2,29.5c-4.5,0-8.2-3.7-8.2-8.2c0-4.5,3.7-8.2,8.2-8.2
		c4.5,0,8.2,3.7,8.2,8.2C29.3,25.8,25.7,29.5,21.2,29.5L21.2,29.5z M28.2,81H14.1V35.7h14.1V81L28.2,81z M88.1,0H7
		C3.1,0,0,3.1,0,6.9v81.4c0,3.8,3.1,6.9,7,6.9h81c3.9,0,7-3.1,7-6.9V6.9C95.1,3.1,91.9,0,88.1,0L88.1,0z"/>
	<path fill="#FFFFFF" d="M102.8,78.4c0.7-0.1,1.1-0.5,1.1-1.1c0-0.8-0.5-1.2-1.5-1.2h-1.6v4.2h0.6v-1.8h0.7l0,0l1.1,1.8h0.6
		L102.8,78.4L102.8,78.4L102.8,78.4z M102.1,77.9h-0.7v-1.4h0.9c0.5,0,1,0.1,1,0.7C103.2,77.9,102.7,77.9,102.1,77.9L102.1,77.9z"/>
	<path fill="#FFFFFF" d="M102.1,74.2c-2.2,0-3.9,1.7-3.9,3.9c0,2.2,1.7,3.9,3.9,3.9c2.2,0,3.9-1.7,3.9-3.9
		C106.1,75.9,104.4,74.2,102.1,74.2L102.1,74.2z M102.1,81.6c-1.9,0-3.4-1.5-3.4-3.4c0-1.9,1.5-3.4,3.4-3.4c1.9,0,3.4,1.5,3.4,3.4
		C105.5,80.1,104,81.6,102.1,81.6L102.1,81.6z"/>
</g>
<text transform="matrix(1 0 0 1 119.0301 80.2945)" fill="#FFFFFF" font-family="'MyriadPro-Bold'" font-size="90.936">style</text>
</svg>
